<svg xmlns="http://www.w3.org/2000/svg" viewBox="0 0 64.01 63.86"><defs><style>.cls-1{fill-rule:evenodd;}</style></defs><title>Asset 22</title><g id="Layer_2" data-name="Layer 2"><g id="Layer_22" data-name="Layer 22"><path class="cls-1" d="M8,18h8v2H8Zm8,10H8V26h8ZM62,53H50V51H62V14H2V51H30v2H0V4A4.33,4.33,0,0,1,4,0c7.22,0,51.49,0,56,0a4.34,4.34,0,0,1,4,4c0,2.54,0,8,0,8V53ZM60,2H5C2.57,2,2,2.6,2,5,2,8,2,12,2,12H62V4C62,2.59,61.43,2,60,2ZM9,4a2.84,2.84,0,0,1,3,3,2.91,2.91,0,0,1-3,3A3,3,0,0,1,6,7,2.88,2.88,0,0,1,9,4ZM9,8a.9.9,0,0,0,1-1A.9.9,0,0,0,9,6,.91.91,0,0,0,8,7,1,1,0,0,0,9,8Zm8-4a2.84,2.84,0,0,1,3,3,2.91,2.91,0,0,1-3,3,3,3,0,0,1-3-3A2.88,2.88,0,0,1,17,4Zm0,4a.9.9,0,0,0,1-1,.9.9,0,0,0-1-1,.91.91,0,0,0-1,1A1,1,0,0,0,17,8Zm8-4a2.84,2.84,0,0,1,3,3,2.91,2.91,0,0,1-3,3,3,3,0,0,1-3-3A2.88,2.88,0,0,1,25,4Zm0,4a.9.9,0,0,0,1-1,1,1,0,0,0-2,0A1,1,0,0,0,25,8Zm5,37v2H20V41H30v2H22v2ZM22,24H20V18H56v6H22Zm32-4H22v2H54Zm2,8V39H20V26H56Zm-2,0H22v9H54ZM34.29,42.2l12,7.45a1.19,1.19,0,0,1,0,2.05c-.82.5-2,1.06-3.4,1.85l4.28,6.84s-.08.21-5.28,3.47l-4.22-7C36.78,57.44,34,59,34,59s-2,.88-2-2c0-3.31.06-9.09,0-13.22A1.83,1.83,0,0,1,34.29,42.2ZM34,57c3.75-2.32,4.25-2.67,4.25-2.67s4,6.66,4.34,7.2L45,60c-2.83-4.78-4.53-7.16-4.53-7.16s.66-.34,3.75-2.19c-1.57-1.07-8-4.94-10.38-6.47C33.85,45.74,34,55.64,34,57Z"/></g></g></svg>