<svg xmlns="http://www.w3.org/2000/svg" viewBox="0 0 64.21 65.27"><defs><style>.cls-1{fill-rule:evenodd;}</style></defs><title>Asset 19</title><g id="Layer_2" data-name="Layer 2"><g id="Layer_25" data-name="Layer 25"><path class="cls-1" d="M64.15,36.25,63,37.38l-26.7,26.7-1.18,1.19L34,64.08l-6-5.95v.65H26v-2h.65L23.27,53.4,9,39.16l-.38-.38H6v-2h5v2L24.46,52.21,35.14,62.89l26.7-26.7-7.72-7.71-1.18-1.19,1.18-1.18,5.34-5.34L60.65,22l-5.34,5.34,7.17,7.17,0-15.47L45.82,2.37,42.41,5.78H45v2H25v-2H40L45.82,0l.59.59.59.6,17.21,17.2,0,17.17ZM21,10.78h2v2H21Zm9,5L36.92,8.9l1.18,1.19L15.41,32.78H25v2H5v-2h8l2-2H11v-2h5v1l12-12H18v-2H30Zm-17-5h5v2H13Zm0,12H11v-2h2Zm-6,8v-2H9v2Zm11-4H2v-2H18Zm-13,4H0v-2H5Zm-1,8H2v-2H4Zm16,16H15v-2h5Zm3,4H21v-2h2Z"/></g></g></svg>