<svg xmlns="http://www.w3.org/2000/svg" viewBox="0 0 65.06 64.12"><defs><style>.cls-1{fill-rule:evenodd;}</style></defs><title>Asset 20</title><g id="Layer_2" data-name="Layer 2"><g id="Layer_24" data-name="Layer 24"><path class="cls-1" d="M63.91,37.58,40.58,60.91a6.41,6.41,0,0,1-.87.66l0,0h0c-2.33,1.49-5.86,1.87-7.82,1l-1.57,1.56-1.41-1.41,1.54-1.54c-1.13-2.18-.83-6.29,1.32-8.39L48.29,36.22l-1.54-1.54-6.51,6.51-1.42-1.41,7.9-7.9,3,2.91,5.35-5.35a6.46,6.46,0,0,1,8,.62C65.24,32.13,65.81,35.3,63.91,37.58ZM33,60c.78.78,3.14,1,5.12,0l-5.27-5.26C31.75,56.65,31.93,58.92,33,60ZM49.7,37.64,34.13,53.21l5.66,5.66L55.33,43.33Zm1.44-1.44,5.68,5.63,1.55-1.54-5.66-5.66ZM61,32c-1-1-3.8-1.76-5.22-.43l-1.65,1.64,5.66,5.66,2-2C63.13,35.31,62,33,61,32ZM38,33H8V31H38Zm0-8H8V23H38ZM19,17H8V15H19ZM14.71,49.14,16,47l3-1,3.2,4H25v2H21l-3.27-4.09L15,52H13l-1.85-8.32L9,53H7l3-11,2-2ZM44,17H29V6h2v9H43.08L30,2H2V62H26v2H0V0H31L45.42,14.51A5.15,5.15,0,0,0,46,15V29H44Z"/></g></g></svg>