<svg xmlns="http://www.w3.org/2000/svg" viewBox="0 0 65 64.24"><defs><style>.cls-1{fill-rule:evenodd;}</style></defs><title>Asset 21</title><g id="Layer_2" data-name="Layer 2"><g id="Layer_23" data-name="Layer 23"><path class="cls-1" d="M58.17,64.24,58,64.07l-.17.17-6.69-6.69a13.9,13.9,0,0,1-17.91-5A17,17,0,1,1,38.7,32.51a14,14,0,0,1,19.19,18L65,57ZM8.43,39a14.5,14.5,0,0,0,2.94,8.76l10.31-8.63L12.5,28.92A14.46,14.46,0,0,0,8.43,39ZM14,27.58l8,8.91v-12A14.46,14.46,0,0,0,14,27.58Zm10-3.11V38h3v2H23.75L12.67,49.28A14.57,14.57,0,0,0,32.53,50a18.09,18.09,0,0,1-.78-8l.91-3a10.66,10.66,0,0,1,4.11-4.79A14.56,14.56,0,0,0,24,24.47ZM45,33A12,12,0,1,0,57,45,12,12,0,0,0,45,33ZM56.91,52.33a14.08,14.08,0,0,1-4,4.18L58,61.59l4.09-4.09ZM36,47c1.38-2,2.27-3.08,2-9,1.34,0,.69,0,2,0,.4,7.56-1.28,9.16-3,11A17.65,17.65,0,0,1,36,47ZM8,16V14h7v2ZM8,8H23v2H8Zm36,9H29V6h2v9H43.08L30,2H2V62H46v2H0V0H31L45.42,14.51A5.15,5.15,0,0,0,46,15V29H44Z"/></g></g></svg>